<svg width="267" height="52" viewBox="0 0 267 52" fill="none" xmlns="http://www.w3.org/2000/svg">
<path d="M0.232056 8.07201H4.22806V26H0.232056V8.07201ZM11.7881 7.67601C12.8201 7.67601 13.7681 7.82001 14.6321 8.10801C15.5201 8.39601 16.2761 8.84001 16.9001 9.44001C17.5481 10.016 18.0401 10.736 18.3761 11.6C18.7361 12.464 18.9161 13.484 18.9161 14.66V26H14.9201V15.452C14.9201 13.988 14.5601 12.908 13.8401 12.212C13.1441 11.492 12.0401 11.132 10.5281 11.132C9.37606 11.132 8.32006 11.384 7.36006 11.888C6.42406 12.368 5.65606 13.004 5.05606 13.796C4.45606 14.564 4.10806 15.416 4.01206 16.352L3.97606 14.408C4.09606 13.52 4.36006 12.68 4.76806 11.888C5.17606 11.072 5.71606 10.352 6.38806 9.72801C7.06006 9.08001 7.85206 8.57601 8.76406 8.21601C9.67606 7.85601 10.6841 7.67601 11.7881 7.67601ZM26.0801 7.67601C27.1361 7.67601 28.0961 7.82001 28.9601 8.10801C29.8241 8.39601 30.5681 8.84001 31.1921 9.44001C31.8401 10.016 32.3441 10.736 32.7041 11.6C33.0641 12.464 33.2441 13.484 33.2441 14.66V26H29.2121V15.452C29.2121 13.988 28.8521 12.908 28.1321 12.212C27.4361 11.492 26.3321 11.132 24.8201 11.132C23.6681 11.132 22.6121 11.384 21.6521 11.888C20.7161 12.368 19.9481 13.004 19.3481 13.796C18.7721 14.564 18.4361 15.416 18.3401 16.352L18.2681 14.336C18.3881 13.472 18.6641 12.644 19.0961 11.852C19.5281 11.036 20.0801 10.316 20.7521 9.69201C21.4241 9.06801 22.2041 8.57601 23.0921 8.21601C24.0041 7.85601 25.0001 7.67601 26.0801 7.67601Z" fill="white"/>
<path d="M52.6143 20.096H56.4663C56.2743 21.32 55.7943 22.412 55.0263 23.372C54.2823 24.308 53.2623 25.052 51.9663 25.604C50.6703 26.132 49.1223 26.396 47.3223 26.396C45.2823 26.396 43.4583 26.024 41.8503 25.28C40.2423 24.512 38.9823 23.432 38.0703 22.04C37.1583 20.648 36.7023 18.992 36.7023 17.072C36.7023 15.176 37.1463 13.52 38.0343 12.104C38.9223 10.688 40.1463 9.59601 41.7063 8.82801C43.2903 8.06001 45.1143 7.67601 47.1783 7.67601C49.3143 7.67601 51.0903 8.06001 52.5063 8.82801C53.9463 9.57201 55.0143 10.7 55.7103 12.212C56.4063 13.7 56.6943 15.584 56.5743 17.864H40.7703C40.8903 18.872 41.2143 19.784 41.7423 20.6C42.2943 21.392 43.0383 22.016 43.9743 22.472C44.9103 22.904 46.0023 23.12 47.2503 23.12C48.6423 23.12 49.8063 22.844 50.7423 22.292C51.7023 21.74 52.3263 21.008 52.6143 20.096ZM47.0703 10.916C45.4383 10.916 44.0943 11.324 43.0383 12.14C41.9823 12.932 41.2983 13.952 40.9863 15.2H52.5423C52.4463 13.856 51.9063 12.812 50.9223 12.068C49.9383 11.3 48.6543 10.916 47.0703 10.916Z" fill="white"/>
<path d="M69.6783 26.396C67.6863 26.396 65.8983 26.036 64.3143 25.316C62.7303 24.596 61.4823 23.54 60.5703 22.148C59.6583 20.756 59.2023 19.064 59.2023 17.072C59.2023 15.104 59.6583 13.424 60.5703 12.032C61.4823 10.616 62.7303 9.53601 64.3143 8.79201C65.8983 8.04801 67.6863 7.67601 69.6783 7.67601C71.6703 7.67601 73.4463 8.04801 75.0063 8.79201C76.5663 9.53601 77.7903 10.616 78.6783 12.032C79.5903 13.424 80.0463 15.104 80.0463 17.072C80.0463 19.064 79.5903 20.756 78.6783 22.148C77.7903 23.54 76.5663 24.596 75.0063 25.316C73.4463 26.036 71.6703 26.396 69.6783 26.396ZM69.6783 23.12C70.8303 23.12 71.8863 22.892 72.8463 22.436C73.8063 21.98 74.5623 21.296 75.1143 20.384C75.6903 19.472 75.9783 18.368 75.9783 17.072C75.9783 15.776 75.6903 14.672 75.1143 13.76C74.5623 12.848 73.8063 12.152 72.8463 11.672C71.9103 11.168 70.8543 10.916 69.6783 10.916C68.5023 10.916 67.4343 11.156 66.4743 11.636C65.5143 12.116 64.7343 12.812 64.1343 13.724C63.5583 14.636 63.2703 15.752 63.2703 17.072C63.2703 18.368 63.5583 19.472 64.1343 20.384C64.7103 21.296 65.4783 21.98 66.4383 22.436C67.4223 22.892 68.5023 23.12 69.6783 23.12Z" fill="white"/>
<path d="M83.6227 8.07201H87.6187V26H83.6227V8.07201ZM95.1787 7.67601C96.2107 7.67601 97.1587 7.82001 98.0227 8.10801C98.9107 8.39601 99.6667 8.84001 100.291 9.44001C100.939 10.016 101.431 10.736 101.767 11.6C102.127 12.464 102.307 13.484 102.307 14.66V26H98.3107V15.452C98.3107 13.988 97.9507 12.908 97.2307 12.212C96.5347 11.492 95.4307 11.132 93.9187 11.132C92.7667 11.132 91.7107 11.384 90.7507 11.888C89.8147 12.368 89.0467 13.004 88.4467 13.796C87.8467 14.564 87.4987 15.416 87.4027 16.352L87.3667 14.408C87.4867 13.52 87.7507 12.68 88.1587 11.888C88.5667 11.072 89.1067 10.352 89.7787 9.72801C90.4507 9.08001 91.2427 8.57601 92.1547 8.21601C93.0667 7.85601 94.0747 7.67601 95.1787 7.67601Z" fill="white"/>
<path d="M121.696 20.096H125.548C125.356 21.32 124.876 22.412 124.108 23.372C123.364 24.308 122.344 25.052 121.048 25.604C119.752 26.132 118.204 26.396 116.404 26.396C114.364 26.396 112.54 26.024 110.932 25.28C109.324 24.512 108.064 23.432 107.152 22.04C106.24 20.648 105.784 18.992 105.784 17.072C105.784 15.176 106.228 13.52 107.116 12.104C108.004 10.688 109.228 9.59601 110.788 8.82801C112.372 8.06001 114.196 7.67601 116.26 7.67601C118.396 7.67601 120.172 8.06001 121.588 8.82801C123.028 9.57201 124.096 10.7 124.792 12.212C125.488 13.7 125.776 15.584 125.656 17.864H109.852C109.972 18.872 110.296 19.784 110.824 20.6C111.376 21.392 112.12 22.016 113.056 22.472C113.992 22.904 115.084 23.12 116.332 23.12C117.724 23.12 118.888 22.844 119.824 22.292C120.784 21.74 121.408 21.008 121.696 20.096ZM116.152 10.916C114.52 10.916 113.176 11.324 112.12 12.14C111.064 12.932 110.38 13.952 110.068 15.2H121.624C121.528 13.856 120.988 12.812 120.004 12.068C119.02 11.3 117.736 10.916 116.152 10.916Z" fill="white"/>
<path d="M144.196 20.096H148.048C147.856 21.32 147.376 22.412 146.608 23.372C145.864 24.308 144.844 25.052 143.548 25.604C142.252 26.132 140.704 26.396 138.904 26.396C136.864 26.396 135.04 26.024 133.432 25.28C131.824 24.512 130.564 23.432 129.652 22.04C128.74 20.648 128.284 18.992 128.284 17.072C128.284 15.176 128.728 13.52 129.616 12.104C130.504 10.688 131.728 9.59601 133.288 8.82801C134.872 8.06001 136.696 7.67601 138.76 7.67601C140.896 7.67601 142.672 8.06001 144.088 8.82801C145.528 9.57201 146.596 10.7 147.292 12.212C147.988 13.7 148.276 15.584 148.156 17.864H132.352C132.472 18.872 132.796 19.784 133.324 20.6C133.876 21.392 134.62 22.016 135.556 22.472C136.492 22.904 137.584 23.12 138.832 23.12C140.224 23.12 141.388 22.844 142.324 22.292C143.284 21.74 143.908 21.008 144.196 20.096ZM138.652 10.916C137.02 10.916 135.676 11.324 134.62 12.14C133.564 12.932 132.88 13.952 132.568 15.2H144.124C144.028 13.856 143.488 12.812 142.504 12.068C141.52 11.3 140.236 10.916 138.652 10.916Z" fill="white"/>
<path d="M163.924 26.396C162.436 26.396 161.176 26.108 160.144 25.532C159.136 24.932 158.32 24.164 157.696 23.228C157.096 22.292 156.652 21.284 156.364 20.204C156.1 19.1 155.968 18.056 155.968 17.072C155.968 15.752 156.1 14.528 156.364 13.4C156.628 12.272 157.06 11.288 157.66 10.448C158.284 9.58401 159.1 8.91201 160.108 8.43201C161.14 7.92801 162.412 7.67601 163.924 7.67601C165.652 7.67601 167.176 8.07201 168.496 8.86401C169.84 9.65601 170.896 10.76 171.664 12.176C172.456 13.568 172.852 15.2 172.852 17.072C172.852 18.896 172.456 20.516 171.664 21.932C170.872 23.324 169.804 24.416 168.46 25.208C167.116 26 165.604 26.396 163.924 26.396ZM162.7 23.084C163.924 23.084 164.98 22.832 165.868 22.328C166.78 21.824 167.488 21.116 167.992 20.204C168.496 19.292 168.748 18.248 168.748 17.072C168.748 15.272 168.22 13.808 167.164 12.68C166.108 11.528 164.62 10.952 162.7 10.952C161.38 10.952 160.24 11.204 159.28 11.708C158.344 12.212 157.624 12.92 157.12 13.832C156.64 14.72 156.4 15.8 156.4 17.072C156.4 18.224 156.64 19.256 157.12 20.168C157.624 21.08 158.344 21.8 159.28 22.328C160.216 22.832 161.356 23.084 162.7 23.084ZM156.4 0.872009V21.752C156.4 22.4 156.364 23.132 156.292 23.948C156.22 24.764 156.148 25.448 156.076 26H152.368V0.872009H156.4Z" fill="white"/>
<path d="M180.801 22.112V26H176.013V22.112H180.801Z" fill="white"/>
<path d="M204.204 19.052C204.06 20.588 203.568 21.908 202.728 23.012C201.888 24.116 200.76 24.956 199.344 25.532C197.952 26.108 196.344 26.396 194.52 26.396C192.552 26.396 190.764 26.036 189.156 25.316C187.572 24.596 186.312 23.54 185.376 22.148C184.44 20.756 183.972 19.064 183.972 17.072C183.972 15.08 184.44 13.388 185.376 11.996C186.312 10.604 187.572 9.53601 189.156 8.79201C190.764 8.04801 192.552 7.67601 194.52 7.67601C196.344 7.67601 197.952 7.97601 199.344 8.57601C200.736 9.15201 201.852 9.98001 202.692 11.06C203.532 12.14 204.024 13.448 204.168 14.984H200.496C200.088 13.712 199.344 12.728 198.264 12.032C197.208 11.312 195.96 10.952 194.52 10.952C193.344 10.952 192.264 11.192 191.28 11.672C190.296 12.128 189.504 12.812 188.904 13.724C188.328 14.612 188.04 15.728 188.04 17.072C188.04 18.392 188.328 19.508 188.904 20.42C189.504 21.332 190.296 22.016 191.28 22.472C192.264 22.904 193.344 23.12 194.52 23.12C196.104 23.12 197.4 22.772 198.408 22.076C199.44 21.356 200.148 20.348 200.532 19.052H204.204Z" fill="white"/>
<path d="M217.264 26.396C215.272 26.396 213.484 26.036 211.9 25.316C210.316 24.596 209.068 23.54 208.156 22.148C207.244 20.756 206.788 19.064 206.788 17.072C206.788 15.104 207.244 13.424 208.156 12.032C209.068 10.616 210.316 9.53601 211.9 8.79201C213.484 8.04801 215.272 7.67601 217.264 7.67601C219.256 7.67601 221.032 8.04801 222.592 8.79201C224.152 9.53601 225.376 10.616 226.264 12.032C227.176 13.424 227.632 15.104 227.632 17.072C227.632 19.064 227.176 20.756 226.264 22.148C225.376 23.54 224.152 24.596 222.592 25.316C221.032 26.036 219.256 26.396 217.264 26.396ZM217.264 23.12C218.416 23.12 219.472 22.892 220.432 22.436C221.392 21.98 222.148 21.296 222.7 20.384C223.276 19.472 223.564 18.368 223.564 17.072C223.564 15.776 223.276 14.672 222.7 13.76C222.148 12.848 221.392 12.152 220.432 11.672C219.496 11.168 218.44 10.916 217.264 10.916C216.088 10.916 215.02 11.156 214.06 11.636C213.1 12.116 212.32 12.812 211.72 13.724C211.144 14.636 210.856 15.752 210.856 17.072C210.856 18.368 211.144 19.472 211.72 20.384C212.296 21.296 213.064 21.98 214.024 22.436C215.008 22.892 216.088 23.12 217.264 23.12Z" fill="white"/>
<path d="M231.209 8.07201H235.205V26H231.209V8.07201ZM242.765 7.67601C243.797 7.67601 244.745 7.82001 245.609 8.10801C246.497 8.39601 247.253 8.84001 247.877 9.44001C248.525 10.016 249.017 10.736 249.353 11.6C249.713 12.464 249.893 13.484 249.893 14.66V26H245.897V15.452C245.897 13.988 245.537 12.908 244.817 12.212C244.121 11.492 243.017 11.132 241.505 11.132C240.353 11.132 239.297 11.384 238.337 11.888C237.401 12.368 236.633 13.004 236.033 13.796C235.433 14.564 235.085 15.416 234.989 16.352L234.953 14.408C235.073 13.52 235.337 12.68 235.745 11.888C236.153 11.072 236.693 10.352 237.365 9.72801C238.037 9.08001 238.829 8.57601 239.741 8.21601C240.653 7.85601 241.661 7.67601 242.765 7.67601ZM257.057 7.67601C258.113 7.67601 259.073 7.82001 259.937 8.10801C260.801 8.39601 261.545 8.84001 262.169 9.44001C262.817 10.016 263.321 10.736 263.681 11.6C264.041 12.464 264.221 13.484 264.221 14.66V26H260.189V15.452C260.189 13.988 259.829 12.908 259.109 12.212C258.413 11.492 257.309 11.132 255.797 11.132C254.645 11.132 253.589 11.384 252.629 11.888C251.693 12.368 250.925 13.004 250.325 13.796C249.749 14.564 249.413 15.416 249.317 16.352L249.245 14.336C249.365 13.472 249.641 12.644 250.073 11.852C250.505 11.036 251.057 10.316 251.729 9.69201C252.401 9.06801 253.181 8.57601 254.069 8.21601C254.981 7.85601 255.977 7.67601 257.057 7.67601Z" fill="white"/>
<path d="M119.248 51V40.632H124.528C125.797 40.632 126.768 40.872 127.44 41.352C128.123 41.8213 128.464 42.504 128.464 43.4C128.464 43.976 128.331 44.4347 128.064 44.776C127.808 45.1067 127.44 45.3573 126.96 45.528C126.48 45.688 125.915 45.7893 125.264 45.832L125.328 45.736C125.797 45.7467 126.24 45.7893 126.656 45.864C127.083 45.928 127.456 46.0453 127.776 46.216C128.107 46.3867 128.363 46.6267 128.544 46.936C128.736 47.2347 128.832 47.624 128.832 48.104C128.832 48.744 128.672 49.272 128.352 49.688C128.032 50.104 127.589 50.424 127.024 50.648C126.459 50.8613 125.808 50.9787 125.072 51H119.248ZM121.072 49.448H124.8C125.493 49.448 126.032 49.3307 126.416 49.096C126.8 48.8507 126.992 48.472 126.992 47.96C126.992 47.5547 126.875 47.2613 126.64 47.08C126.405 46.888 126.101 46.7653 125.728 46.712C125.365 46.6587 124.976 46.632 124.56 46.632H121.072V49.448ZM121.072 45.112H124.416C125.109 45.112 125.643 44.9947 126.016 44.76C126.4 44.5147 126.592 44.1307 126.592 43.608C126.592 43.096 126.4 42.7333 126.016 42.52C125.643 42.296 125.152 42.184 124.544 42.184H121.072V45.112Z" fill="#8FFF00"/>
<path d="M139.858 40.632L135.634 47.624V51H133.81V47.624L129.586 40.632H131.682L135.25 46.744H134.258L137.778 40.632H139.858Z" fill="#8FFF00"/>
<path d="M150.739 51.192C149.523 51.192 148.461 50.9733 147.555 50.536C146.659 50.0987 145.96 49.48 145.459 48.68C144.968 47.88 144.723 46.9253 144.723 45.816C144.723 44.7067 144.968 43.752 145.459 42.952C145.96 42.1413 146.659 41.5227 147.555 41.096C148.461 40.6587 149.523 40.44 150.739 40.44C151.965 40.44 153.027 40.6587 153.923 41.096C154.819 41.5227 155.512 42.1413 156.003 42.952C156.504 43.752 156.755 44.7067 156.755 45.816C156.755 46.9253 156.504 47.88 156.003 48.68C155.512 49.48 154.819 50.0987 153.923 50.536C153.027 50.9733 151.965 51.192 150.739 51.192ZM150.739 49.592C151.549 49.592 152.264 49.4533 152.883 49.176C153.501 48.8987 153.987 48.4827 154.339 47.928C154.701 47.3627 154.883 46.6587 154.883 45.816C154.883 44.984 154.701 44.2907 154.339 43.736C153.987 43.1707 153.501 42.7493 152.883 42.472C152.264 42.184 151.549 42.04 150.739 42.04C149.939 42.04 149.224 42.184 148.595 42.472C147.965 42.7493 147.469 43.1707 147.107 43.736C146.744 44.2907 146.563 44.984 146.563 45.816C146.563 46.6587 146.744 47.3627 147.107 47.928C147.469 48.4827 147.965 48.8987 148.595 49.176C149.224 49.4533 149.939 49.592 150.739 49.592Z" fill="#8FFF00"/>
<path d="M168.426 49.112L167.882 49.32V40.632H169.69V51H167.882L160.106 42.568L160.666 42.36V51H158.842V40.632H160.666L168.426 49.112Z" fill="#8FFF00"/>
<path d="M174.01 46.584V49.432H181.29V51H172.186V40.632H181.274V42.2H174.01V45.08H179.962V46.584H174.01Z" fill="#8FFF00"/>
<path d="M185.322 46.584V49.432H192.602V51H183.498V40.632H192.586V42.2H185.322V45.08H191.274V46.584H185.322Z" fill="#8FFF00"/>
<path d="M194.811 51V40.632H200.091C201.36 40.632 202.331 40.872 203.003 41.352C203.685 41.8213 204.027 42.504 204.027 43.4C204.027 43.976 203.893 44.4347 203.627 44.776C203.371 45.1067 203.003 45.3573 202.523 45.528C202.043 45.688 201.477 45.7893 200.827 45.832L200.891 45.736C201.36 45.7467 201.803 45.7893 202.219 45.864C202.645 45.928 203.019 46.0453 203.339 46.216C203.669 46.3867 203.925 46.6267 204.107 46.936C204.299 47.2347 204.395 47.624 204.395 48.104C204.395 48.744 204.235 49.272 203.915 49.688C203.595 50.104 203.152 50.424 202.587 50.648C202.021 50.8613 201.371 50.9787 200.635 51H194.811ZM196.635 49.448H200.363C201.056 49.448 201.595 49.3307 201.979 49.096C202.363 48.8507 202.555 48.472 202.555 47.96C202.555 47.5547 202.437 47.2613 202.203 47.08C201.968 46.888 201.664 46.7653 201.291 46.712C200.928 46.6587 200.539 46.632 200.123 46.632H196.635V49.448ZM196.635 45.112H199.979C200.672 45.112 201.205 44.9947 201.579 44.76C201.963 44.5147 202.155 44.1307 202.155 43.608C202.155 43.096 201.963 42.7333 201.579 42.52C201.205 42.296 200.715 42.184 200.107 42.184H196.635V45.112Z" fill="#8FFF00"/>
<path d="M219.086 40.632V42.2H211.822V45.208H217.774V46.712H211.822V51H209.998V40.632H219.086Z" fill="#8FFF00"/>
<path d="M221.079 48.568V47.016H227.255V48.568H221.079ZM218.679 51L223.207 40.632H225.159L229.719 51H227.751L223.783 41.64H224.583L220.631 51H218.679Z" fill="#8FFF00"/>
<path d="M231.568 40.632H233.392V51H231.568V40.632Z" fill="#8FFF00"/>
<path d="M235.498 47.56H237.274C237.316 47.9547 237.471 48.312 237.738 48.632C238.015 48.9413 238.378 49.1867 238.826 49.368C239.284 49.5387 239.807 49.624 240.394 49.624C240.916 49.624 241.348 49.56 241.69 49.432C242.031 49.304 242.282 49.128 242.442 48.904C242.612 48.6693 242.698 48.3973 242.698 48.088C242.698 47.7787 242.596 47.5387 242.394 47.368C242.202 47.1867 241.903 47.0373 241.498 46.92C241.092 46.792 240.575 46.6693 239.946 46.552C239.423 46.456 238.916 46.328 238.426 46.168C237.935 46.008 237.492 45.8053 237.098 45.56C236.714 45.3147 236.41 45.016 236.186 44.664C235.962 44.3013 235.85 43.8747 235.85 43.384C235.85 42.8293 236.004 42.328 236.314 41.88C236.634 41.432 237.103 41.08 237.722 40.824C238.34 40.568 239.092 40.44 239.978 40.44C241.332 40.44 242.367 40.7547 243.082 41.384C243.796 42.0027 244.143 42.8453 244.122 43.912H242.378C242.346 43.24 242.1 42.7547 241.642 42.456C241.183 42.1573 240.602 42.008 239.898 42.008C239.268 42.008 238.74 42.12 238.314 42.344C237.887 42.568 237.674 42.9307 237.674 43.432C237.674 43.6453 237.722 43.832 237.818 43.992C237.924 44.1413 238.095 44.28 238.33 44.408C238.564 44.5253 238.884 44.6427 239.29 44.76C239.706 44.8667 240.212 44.984 240.81 45.112C241.322 45.1973 241.802 45.3147 242.25 45.464C242.698 45.6133 243.087 45.8 243.418 46.024C243.759 46.248 244.026 46.536 244.218 46.888C244.41 47.24 244.506 47.672 244.506 48.184C244.506 48.7707 244.356 49.2933 244.058 49.752C243.759 50.2 243.3 50.5573 242.682 50.824C242.074 51.08 241.284 51.208 240.314 51.208C239.578 51.208 238.932 51.1227 238.378 50.952C237.834 50.7707 237.37 50.5413 236.986 50.264C236.602 49.976 236.292 49.6667 236.058 49.336C235.834 49.0053 235.674 48.6853 235.578 48.376C235.492 48.056 235.466 47.784 235.498 47.56Z" fill="#8FFF00"/>
<path d="M247.735 48.568V47.016H253.911V48.568H247.735ZM245.335 51L249.863 40.632H251.815L256.375 51H254.407L250.439 41.64H251.239L247.287 51H245.335Z" fill="#8FFF00"/>
<path d="M259.744 40.632V49.432H266.208V51H257.92V40.632H259.744Z" fill="#8FFF00"/>
</svg>
